<svg width="24" height="24" viewBox="0 0 24 24" fill="none" xmlns="http://www.w3.org/2000/svg" aria-hidden="true"><circle cx="12" cy="13" r="12" fill="white"></circle><path d="m12.29,15.29c-0.39,0.39 -0.39,1.03 0,1.42c0.39,0.39 1.03,0.39 1.42,0l4.7,-4.71l-4.7,-4.71c-0.39,-0.39 -1.03,
    -0.39 -1.42,0c-0.39,0.39 -0.39,1.03 0,1.42l3.3,3.29l-3.3,3.29z" fill="#313131"></path><path d="m6.29,15.29c-0.39,0.39 -0.39,1.03 0,1.42c0.39,0.39 1.03,0.39 1.42,0l4.7,-4.71l-4.7,
      -4.71c-0.39,-0.39 -1.03,-0.39 -1.42,0c-0.39,0.39 -0.39,1.03 0,1.42l3.3,3.29l-3.3,3.29z" fill="#313131"></path></svg>